PathFileType	4	(X/Y/Z)	 s06c0001.trc
DataRate	CameraRate	NumFrames	NumMarkers	Units	OrigDataRate	OrigDataStartFrame	OrigNumFrames
200	200	4	49	mm	200	1001	2000
Frame#	Time	racr			lacr			c7			jug			rlel			rdr			llel			ldr			s2			lic			ric			lasi			rasi			rpsi			lpsi			rgt			lgt			rth1			rth2			rth3			rth4			rlfc			rmfc			rsh1			rsh2			rsh3			rsh4			rlmal			rmmal			rcal			rtoe			rmt5			rmt1			lth1			lth2			lth4			lth3			llfc			lmfc			llmal			lmmal			lcal			lmt1			lmt5			lsh1			lsh2			lsh3			lsh4			ltoe			
		X1	Y1	Z1	X2	Y2	Z2	X3	Y3	Z3	X4	Y4	Z4	X5	Y5	Z5	X6	Y6	Z6	X7	Y7	Z7	X8	Y8	Z8	X9	Y9	Z9	X10	Y10	Z10	X11	Y11	Z11	X12	Y12	Z12	X13	Y13	Z13	X14	Y14	Z14	X15	Y15	Z15	X16	Y16	Z16	X17	Y17	Z17	X18	Y18	Z18	X19	Y19	Z19	X20	Y20	Z20	X21	Y21	Z21	X22	Y22	Z22	X23	Y23	Z23	X24	Y24	Z24	X25	Y25	Z25	X26	Y26	Z26	X27	Y27	Z27	X28	Y28	Z28	X29	Y29	Z29	X30	Y30	Z30	X31	Y31	Z31	X32	Y32	Z32	X33	Y33	Z33	X34	Y34	Z34	X35	Y35	Z35	X36	Y36	Z36	X37	Y37	Z37	X38	Y38	Z38	X39	Y39	Z39	X40	Y40	Z40	X41	Y41	Z41	X42	Y42	Z42	X43	Y43	Z43	X44	Y44	Z44	X45	Y45	Z45	X46	Y46	Z46	X47	Y47	Z47	X48	Y48	Z48	X49	Y49	Z49	
1001	5.0050	226.524320	1418.144422	397.377794	228.698381	1429.387203	42.647896	190.061435	1490.284928	217.115030	311.068954	1395.912959	223.274485	248.147729	1201.103561	575.952388	350.907695	1043.661324	766.610847	235.444974	1207.357923	-128.870607	332.272128	1070.056429	-329.493486	115.551631	964.663667	229.782232	267.472737	1008.399811	50.719422	278.627814	986.784454	387.929291	320.191578	955.283138	79.697777	332.084907	945.348475	349.951966	139.587613	998.316130	257.101484	126.269133	995.385534	193.524092	240.999750	871.846775	400.708168	246.096763	896.701272	27.424179	251.018126	749.742244	419.976740	259.335916	660.063322	413.297883	223.124686	582.260344	399.784778	295.902281	655.742163	403.971850	205.490946	473.387984	380.115359	220.555316	450.252019	271.917897	174.680327	353.372770	401.685106	188.372382	267.686843	381.819769	159.874372	186.601057	370.483329	216.912391	269.750300	354.377181	154.689241	99.794808	358.313713	199.913573	122.013678	273.159160	109.521500	65.711946	297.035033	382.155815	75.524109	334.575277	280.664854	43.258339	392.353331	303.951852	59.711574	276.958006	229.565443	764.067323	11.654326	243.544138	677.798879	16.813756	279.864414	674.262356	25.223933	211.191525	595.464260	28.895158	182.393358	477.172111	49.462304	203.313474	455.825438	159.461895	154.580729	99.234158	55.988319	171.028736	121.942293	141.034586	100.973534	58.875232	110.513508	310.723632	52.374569	132.943599	290.061797	51.063192	17.870095	159.961992	370.678764	23.719723	177.314713	285.871766	36.688152	150.058552	202.035660	37.861923	208.002002	286.283539	61.360149	380.340061	71.575132	69.489038	
1002	5.0100	226.532251	1418.165185	397.368335	228.680712	1429.387741	42.644805	190.061514	1490.295687	217.088733	311.061942	1395.924427	223.277962	248.155781	1201.109293	575.928287	350.960114	1043.688522	766.601949	235.422959	1207.353503	-128.865815	332.271842	1070.053375	-329.502866	115.545500	964.654006	229.781322	267.469859	1008.400341	50.738623	278.595102	986.802887	387.932818	320.187877	955.273649	79.708095	332.056344	945.365756	349.928033	139.561547	998.315126	257.121538	126.260104	995.363870	193.541430	241.007788	871.849160	400.695373	246.107026	896.700213	27.435652	250.990210	749.757025	419.990734	259.323077	660.088817	413.313525	223.095105	582.275084	399.795723	295.874739	655.749936	403.984429	205.468511	473.396558	380.110104	220.531135	450.252185	271.913139	174.662749	353.377742	401.692606	188.381756	267.685289	381.795991	159.875121	186.596635	370.479349	216.915069	269.729312	354.376283	154.681830	99.811866	358.305992	199.912363	121.990317	273.156709	109.537399	65.705210	297.049746	382.151365	75.535466	334.560259	280.672223	43.250463	392.357854	303.959004	59.712276	276.954492	229.565169	764.065242	11.655253	243.551893	677.801521	16.827709	279.876726	674.263715	25.243655	211.187309	595.455449	28.899600	182.393145	477.157628	49.449424	203.297644	455.844394	159.459364	154.583077	99.217896	55.981281	171.030632	121.943660	141.021779	100.978153	58.858117	110.515384	310.734502	52.363051	132.950468	290.060951	51.066800	17.865866	159.963455	370.673993	23.723219	177.295168	285.891786	36.685196	150.062131	202.039015	37.845235	208.003068	286.280944	61.360781	380.363558	71.583801	69.500192	
1003	5.0150	226.516834	1418.167120	397.373871	228.667810	1429.387259	42.632267	190.061512	1490.295694	217.088748	311.051822	1395.931433	223.262250	248.173715	1201.122637	575.939559	350.987095	1043.741304	766.597276	235.407705	1207.357904	-128.882946	332.252669	1070.053583	-329.501846	115.534659	964.666979	229.790173	267.465220	1008.401002	50.730503	278.579600	986.804560	387.913866	320.166902	955.272085	79.718189	332.030263	945.380108	349.940550	139.504318	998.270212	257.131810	126.226952	995.382661	193.530969	241.007325	871.848581	400.698865	246.080046	896.700433	27.426368	250.983272	749.753433	419.977038	259.305362	660.101414	413.322955	223.099807	582.262305	399.785104	295.861700	655.757104	403.979612	205.461591	473.398866	380.110660	220.513232	450.265041	271.909818	174.648381	353.365623	401.688054	188.381613	267.684837	381.796335	159.872058	186.582412	370.485965	216.915430	269.754851	354.397165	154.684354	99.774870	358.314359	199.932881	122.000755	273.168262	109.537395	65.705206	297.049747	382.155524	75.542523	334.552397	280.684308	43.256738	392.357834	303.962374	59.701572	276.971380	229.560071	764.066217	11.652903	243.567578	677.794096	16.847294	279.858309	674.288240	25.221894	211.175220	595.472871	28.891556	182.411964	477.156592	49.452637	203.272028	455.823751	159.462362	154.590975	99.237856	55.981783	171.057155	121.934542	141.020151	100.984320	58.864049	110.496056	310.741144	52.378943	132.964117	290.069425	51.072917	17.871602	159.969812	370.666422	23.729910	177.297687	285.886622	36.690703	150.061758	202.038240	37.847101	207.982170	286.284797	61.349326	380.361105	71.565943	69.494106	
1004	5.0200	226.503348	1418.182595	397.360348	228.640290	1429.386990	42.614976	190.015833	1490.285340	217.088909	311.033620	1395.949377	223.243690	248.181973	1201.173370	575.907402	351.029664	1043.785667	766.596519	235.395521	1207.360019	-128.881885	332.232543	1070.054149	-329.506223	115.527845	964.651571	229.783116	267.453551	1008.416217	50.707352	278.562527	986.809879	387.913249	320.165990	955.288123	79.716251	331.986119	945.349940	349.924311	139.534345	998.316792	257.112936	126.220331	995.369812	193.546787	241.035574	871.844731	400.667931	246.077683	896.698973	27.428108	250.976161	749.753896	419.978527	259.307676	660.098906	413.309069	223.079569	582.276638	399.793400	295.849728	655.743466	403.967664	205.451474	473.402395	380.117016	220.528845	450.250728	271.926042	174.638216	353.372919	401.692008	188.378018	267.697019	381.793911	159.855061	186.606596	370.461872	216.917125	269.764804	354.399716	154.683851	99.793537	358.325145	199.923663	121.993688	273.150363	109.537543	65.719007	297.039768	382.165891	75.524257	334.562095	280.671218	43.259048	392.361576	303.948897	59.701209	276.949266	229.551487	764.066864	11.651164	243.555128	677.791090	16.846678	279.860494	674.256883	25.231940	211.171313	595.463700	28.878684	182.389840	477.158363	49.449124	203.258512	455.803576	159.444426	154.592424	99.237271	55.981544	171.025110	121.958043	141.028178	100.972740	58.873832	110.494519	310.740961	52.369786	132.952815	290.069113	51.073586	17.863625	159.956917	370.684091	23.709138	177.298891	285.882699	36.679923	150.062549	202.039560	37.842462	207.981073	286.277990	61.352622	380.355266	71.572042	69.494790	
